<?xml version="1.0" encoding="utf-8"?>
<!-- Generator: Adobe Illustrator 22.0.1, SVG Export Plug-In . SVG Version: 6.00 Build 0)  -->
<svg version="1.1" id="Layer_1" xmlns="http://www.w3.org/2000/svg" xmlns:xlink="http://www.w3.org/1999/xlink" x="0px" y="0px"
	 viewBox="0 0 441.9 439.8" style="enable-background:new 0 0 441.9 439.8;" xml:space="preserve">
<style type="text/css">
	.st0{fill:#ECC02D;}
	.st1{fill:#FFFFFF;}
	.st2{fill:#D57D31;}
	.st3{fill:#589CDE;}
	.st4{fill:#D1D532;}
	.st5{fill:#9FBE37;}
</style>
<g>
	<path class="st0" d="M375.4,64.4c-85.9-85.9-225.1-85.9-311,0c-85.9,85.9-85.9,225.1,0,311c85.9,85.9,225.1,85.9,311,0
		C461.3,289.5,461.3,150.3,375.4,64.4"/>
	<path class="st1" d="M22.3,251.2l-16-16c-2.5-2.5-2.5-6.4,0-8.9l51.8-51.8c2.5-2.5,6.4-2.5,8.9,0l16,16c2.5,2.5,2.5,6.4,0,8.9
		l-51.8,51.8C28.7,253.7,24.7,253.7,22.3,251.2"/>
	<path class="st1" d="M199.3,213.9c-43,43-112.7,43-155.7,0c-43-43-43-112.7,0-155.7c43-43,112.7-43,155.7,0
		C242.3,101.2,242.3,170.9,199.3,213.9"/>
	<path class="st2" d="M185.4,200c-35.3,35.3-92.6,35.3-127.9,0c-35.3-35.3-35.3-92.6,0-127.9c35.3-35.3,92.6-35.3,127.9,0
		C220.7,107.4,220.7,164.7,185.4,200"/>
	<path class="st3" d="M376.4,410L228,390.5c-10.7-1.4-18.2-11.2-16.8-21.9l43.4-329.3c1.4-10.7,11.2-18.2,21.9-16.8l148.4,19.5
		c10.7,1.4,18.2,11.2,16.8,21.9l-43.4,329.3C396.9,403.9,387.1,411.4,376.4,410"/>
	
		<rect x="184.9" y="131.2" transform="matrix(0.1305 -0.9914 0.9914 0.1305 69.5257 511.6072)" class="st1" width="283.2" height="169.9"/>
	<path class="st1" d="M324.7,388.9l-41.4-5.4c-4.1-0.5-7-4.3-6.4-8.4l0.1-0.8c0.5-4.1,4.3-7,8.4-6.4l41.4,5.4c4.1,0.5,7,4.3,6.4,8.4
		l-0.1,0.8C332.6,386.6,328.8,389.4,324.7,388.9"/>
	<path class="st0" d="M382.8,214.1l-110.2-14.5c-2.3-0.3-3.9-2.4-3.6-4.7l0.1-1c0.3-2.3,2.4-3.9,4.7-3.6L384,204.7
		c2.3,0.3,3.9,2.4,3.6,4.7l-0.1,1C387.2,212.7,385.1,214.4,382.8,214.1"/>
	<path class="st0" d="M380.3,232.8l-110.2-14.5c-2.3-0.3-3.9-2.4-3.6-4.7l0.1-1c0.3-2.3,2.4-3.9,4.7-3.6l110.2,14.5
		c2.3,0.3,3.9,2.4,3.6,4.7l-0.1,1C384.7,231.5,382.6,233.1,380.3,232.8"/>
	<path class="st0" d="M377.9,251.5L267.6,237c-2.3-0.3-3.9-2.4-3.6-4.7l0.1-1c0.3-2.3,2.4-3.9,4.7-3.6l110.2,14.5
		c2.3,0.3,3.9,2.4,3.6,4.7l-0.1,1C382.3,250.2,380.2,251.8,377.9,251.5"/>
	<path class="st4" d="M279.6,330.6l-18.7-2.5c-3.4-0.5-5.9-3.6-5.4-7.1l3.3-25c0.5-3.4,3.6-5.9,7.1-5.4l18.7,2.5
		c3.4,0.5,5.9,3.6,5.4,7.1l-3.3,25C286.3,328.6,283.1,331.1,279.6,330.6"/>
	<path class="st5" d="M360.8,341.3l-18.7-2.5c-3.4-0.5-5.9-3.6-5.4-7.1l5.8-43.7c0.5-3.4,3.6-5.9,7.1-5.4l18.7,2.5
		c3.4,0.5,5.9,3.6,5.4,7.1l-5.7,43.7C367.4,339.3,364.2,341.7,360.8,341.3"/>
	<path class="st4" d="M320.2,335.9l-18.7-2.5c-3.4-0.5-5.9-3.6-5.4-7.1l7.4-56.2c0.5-3.4,3.6-5.9,7.1-5.4l18.7,2.5
		c3.4,0.5,5.9,3.6,5.4,7.1l-7.4,56.2C326.8,334,323.6,336.4,320.2,335.9"/>
	<path class="st2" d="M313,142.2l-3.6,27.7c-0.2,1.5,0.9,2.9,2.4,3.1l14.6,1.9l2.6-19.4c0.1-1,1.1-1.7,2.1-1.6l7.3,1
		c1,0.1,1.7,1.1,1.6,2.1l-2.6,19.4l14.6,1.9c1.5,0.2,2.9-0.9,3.1-2.4l3.6-27.7L313,142.2z"/>
	<path class="st2" d="M341.4,114l25.2,33.1c1.1,1.5-0.1,3.6-2,3.4l-58.2-7.7c-1.9-0.2-2.5-2.6-1-3.8l32.9-25.5
		C339.4,112.9,340.7,113.1,341.4,114"/>
	<path class="st5" d="M419.2,108.6c-1.1,8.6-9,14.7-17.7,13.5c-8.6-1.1-14.7-9-13.5-17.7c1.1-8.6,9-14.7,17.6-13.5
		C414.2,92,420.3,99.9,419.2,108.6"/>
	<path class="st1" d="M403.4,108.1c3.4,0.5,6.6-2,7.1-5.4c0.5-3.4-2-6.6-5.4-7.1c-3.4-0.5-6.6,2-7.1,5.4
		C397.5,104.4,399.9,107.6,403.4,108.1"/>
	<path class="st1" d="M403.3,109.4c-5.9-0.8-9.8-0.9-11,1.6c1.6,4,5.2,7,9.7,7.6c4.6,0.6,8.9-1.4,11.4-4.9
		C412.8,111,409.1,110.1,403.3,109.4"/>
</g>
</svg>
